<?xml version="1.0" encoding="utf-8"?>
<svg xmlns="http://www.w3.org/2000/svg" xmlns:xlink="http://www.w3.org/1999/xlink" width="600" height="400" viewBox="0 0 2400 1600">
<defs>
  <clipPath id="clip1900">
    <rect x="0" y="0" width="2000" height="2000"/>
  </clipPath>
</defs>
<defs>
  <clipPath id="clip1901">
    <rect x="0" y="0" width="2400" height="1600"/>
  </clipPath>
</defs>
<polygon clip-path="url(#clip1901)" points="
0,1600 2400,1600 2400,0 0,0 
  " fill="#ffffff" fill-rule="evenodd" fill-opacity="1"/>
<defs>
  <clipPath id="clip1902">
    <rect x="480" y="0" width="1681" height="1600"/>
  </clipPath>
</defs>
<polygon clip-path="url(#clip1901)" points="
224.386,1440.48 2321.26,1440.48 2321.26,47.2441 224.386,47.2441 
  " fill="#ffffff" fill-rule="evenodd" fill-opacity="1"/>
<defs>
  <clipPath id="clip1903">
    <rect x="224" y="47" width="2098" height="1394"/>
  </clipPath>
</defs>
<polyline clip-path="url(#clip1903)" style="stroke:#000000; stroke-width:2; stroke-opacity:0.1; fill:none" points="
  279.775,1440.48 279.775,47.2441 
  "/>
<polyline clip-path="url(#clip1903)" style="stroke:#000000; stroke-width:2; stroke-opacity:0.1; fill:none" points="
  675.412,1440.48 675.412,47.2441 
  "/>
<polyline clip-path="url(#clip1903)" style="stroke:#000000; stroke-width:2; stroke-opacity:0.1; fill:none" points="
  1071.05,1440.48 1071.05,47.2441 
  "/>
<polyline clip-path="url(#clip1903)" style="stroke:#000000; stroke-width:2; stroke-opacity:0.1; fill:none" points="
  1466.68,1440.48 1466.68,47.2441 
  "/>
<polyline clip-path="url(#clip1903)" style="stroke:#000000; stroke-width:2; stroke-opacity:0.1; fill:none" points="
  1862.32,1440.48 1862.32,47.2441 
  "/>
<polyline clip-path="url(#clip1903)" style="stroke:#000000; stroke-width:2; stroke-opacity:0.1; fill:none" points="
  2257.96,1440.48 2257.96,47.2441 
  "/>
<polyline clip-path="url(#clip1903)" style="stroke:#000000; stroke-width:2; stroke-opacity:0.1; fill:none" points="
  224.386,1381.16 2321.26,1381.16 
  "/>
<polyline clip-path="url(#clip1903)" style="stroke:#000000; stroke-width:2; stroke-opacity:0.1; fill:none" points="
  224.386,1182.24 2321.26,1182.24 
  "/>
<polyline clip-path="url(#clip1903)" style="stroke:#000000; stroke-width:2; stroke-opacity:0.1; fill:none" points="
  224.386,983.318 2321.26,983.318 
  "/>
<polyline clip-path="url(#clip1903)" style="stroke:#000000; stroke-width:2; stroke-opacity:0.1; fill:none" points="
  224.386,784.396 2321.26,784.396 
  "/>
<polyline clip-path="url(#clip1903)" style="stroke:#000000; stroke-width:2; stroke-opacity:0.1; fill:none" points="
  224.386,585.474 2321.26,585.474 
  "/>
<polyline clip-path="url(#clip1903)" style="stroke:#000000; stroke-width:2; stroke-opacity:0.1; fill:none" points="
  224.386,386.552 2321.26,386.552 
  "/>
<polyline clip-path="url(#clip1903)" style="stroke:#000000; stroke-width:2; stroke-opacity:0.1; fill:none" points="
  224.386,187.63 2321.26,187.63 
  "/>
<polyline clip-path="url(#clip1901)" style="stroke:#000000; stroke-width:4; stroke-opacity:1; fill:none" points="
  224.386,1440.48 2321.26,1440.48 
  "/>
<polyline clip-path="url(#clip1901)" style="stroke:#000000; stroke-width:4; stroke-opacity:1; fill:none" points="
  224.386,1440.48 224.386,47.2441 
  "/>
<polyline clip-path="url(#clip1901)" style="stroke:#000000; stroke-width:4; stroke-opacity:1; fill:none" points="
  279.775,1440.48 279.775,1419.58 
  "/>
<polyline clip-path="url(#clip1901)" style="stroke:#000000; stroke-width:4; stroke-opacity:1; fill:none" points="
  675.412,1440.48 675.412,1419.58 
  "/>
<polyline clip-path="url(#clip1901)" style="stroke:#000000; stroke-width:4; stroke-opacity:1; fill:none" points="
  1071.05,1440.48 1071.05,1419.58 
  "/>
<polyline clip-path="url(#clip1901)" style="stroke:#000000; stroke-width:4; stroke-opacity:1; fill:none" points="
  1466.68,1440.48 1466.68,1419.58 
  "/>
<polyline clip-path="url(#clip1901)" style="stroke:#000000; stroke-width:4; stroke-opacity:1; fill:none" points="
  1862.32,1440.48 1862.32,1419.58 
  "/>
<polyline clip-path="url(#clip1901)" style="stroke:#000000; stroke-width:4; stroke-opacity:1; fill:none" points="
  2257.96,1440.48 2257.96,1419.58 
  "/>
<polyline clip-path="url(#clip1901)" style="stroke:#000000; stroke-width:4; stroke-opacity:1; fill:none" points="
  224.386,1381.16 255.839,1381.16 
  "/>
<polyline clip-path="url(#clip1901)" style="stroke:#000000; stroke-width:4; stroke-opacity:1; fill:none" points="
  224.386,1182.24 255.839,1182.24 
  "/>
<polyline clip-path="url(#clip1901)" style="stroke:#000000; stroke-width:4; stroke-opacity:1; fill:none" points="
  224.386,983.318 255.839,983.318 
  "/>
<polyline clip-path="url(#clip1901)" style="stroke:#000000; stroke-width:4; stroke-opacity:1; fill:none" points="
  224.386,784.396 255.839,784.396 
  "/>
<polyline clip-path="url(#clip1901)" style="stroke:#000000; stroke-width:4; stroke-opacity:1; fill:none" points="
  224.386,585.474 255.839,585.474 
  "/>
<polyline clip-path="url(#clip1901)" style="stroke:#000000; stroke-width:4; stroke-opacity:1; fill:none" points="
  224.386,386.552 255.839,386.552 
  "/>
<polyline clip-path="url(#clip1901)" style="stroke:#000000; stroke-width:4; stroke-opacity:1; fill:none" points="
  224.386,187.63 255.839,187.63 
  "/>
<g clip-path="url(#clip1901)">
<text style="fill:#000000; fill-opacity:1; font-family:Arial,Helvetica Neue,Helvetica,sans-serif; font-size:48px; text-anchor:middle;" transform="rotate(0, 279.775, 1494.48)" x="279.775" y="1494.48">0</text>
</g>
<g clip-path="url(#clip1901)">
<text style="fill:#000000; fill-opacity:1; font-family:Arial,Helvetica Neue,Helvetica,sans-serif; font-size:48px; text-anchor:middle;" transform="rotate(0, 675.412, 1494.48)" x="675.412" y="1494.48">100</text>
</g>
<g clip-path="url(#clip1901)">
<text style="fill:#000000; fill-opacity:1; font-family:Arial,Helvetica Neue,Helvetica,sans-serif; font-size:48px; text-anchor:middle;" transform="rotate(0, 1071.05, 1494.48)" x="1071.05" y="1494.48">200</text>
</g>
<g clip-path="url(#clip1901)">
<text style="fill:#000000; fill-opacity:1; font-family:Arial,Helvetica Neue,Helvetica,sans-serif; font-size:48px; text-anchor:middle;" transform="rotate(0, 1466.68, 1494.48)" x="1466.68" y="1494.48">300</text>
</g>
<g clip-path="url(#clip1901)">
<text style="fill:#000000; fill-opacity:1; font-family:Arial,Helvetica Neue,Helvetica,sans-serif; font-size:48px; text-anchor:middle;" transform="rotate(0, 1862.32, 1494.48)" x="1862.32" y="1494.48">400</text>
</g>
<g clip-path="url(#clip1901)">
<text style="fill:#000000; fill-opacity:1; font-family:Arial,Helvetica Neue,Helvetica,sans-serif; font-size:48px; text-anchor:middle;" transform="rotate(0, 2257.96, 1494.48)" x="2257.96" y="1494.48">500</text>
</g>
<g clip-path="url(#clip1901)">
<text style="fill:#000000; fill-opacity:1; font-family:Arial,Helvetica Neue,Helvetica,sans-serif; font-size:48px; text-anchor:end;" transform="rotate(0, 200.386, 1398.66)" x="200.386" y="1398.66">0.0</text>
</g>
<g clip-path="url(#clip1901)">
<text style="fill:#000000; fill-opacity:1; font-family:Arial,Helvetica Neue,Helvetica,sans-serif; font-size:48px; text-anchor:end;" transform="rotate(0, 200.386, 1199.74)" x="200.386" y="1199.74">0.2</text>
</g>
<g clip-path="url(#clip1901)">
<text style="fill:#000000; fill-opacity:1; font-family:Arial,Helvetica Neue,Helvetica,sans-serif; font-size:48px; text-anchor:end;" transform="rotate(0, 200.386, 1000.82)" x="200.386" y="1000.82">0.4</text>
</g>
<g clip-path="url(#clip1901)">
<text style="fill:#000000; fill-opacity:1; font-family:Arial,Helvetica Neue,Helvetica,sans-serif; font-size:48px; text-anchor:end;" transform="rotate(0, 200.386, 801.896)" x="200.386" y="801.896">0.6</text>
</g>
<g clip-path="url(#clip1901)">
<text style="fill:#000000; fill-opacity:1; font-family:Arial,Helvetica Neue,Helvetica,sans-serif; font-size:48px; text-anchor:end;" transform="rotate(0, 200.386, 602.974)" x="200.386" y="602.974">0.8</text>
</g>
<g clip-path="url(#clip1901)">
<text style="fill:#000000; fill-opacity:1; font-family:Arial,Helvetica Neue,Helvetica,sans-serif; font-size:48px; text-anchor:end;" transform="rotate(0, 200.386, 404.052)" x="200.386" y="404.052">1.0</text>
</g>
<g clip-path="url(#clip1901)">
<text style="fill:#000000; fill-opacity:1; font-family:Arial,Helvetica Neue,Helvetica,sans-serif; font-size:48px; text-anchor:end;" transform="rotate(0, 200.386, 205.13)" x="200.386" y="205.13">1.2</text>
</g>
<g clip-path="url(#clip1901)">
<text style="fill:#000000; fill-opacity:1; font-family:Arial,Helvetica Neue,Helvetica,sans-serif; font-size:66px; text-anchor:middle;" transform="rotate(0, 1272.82, 1590.4)" x="1272.82" y="1590.4">number_of_points</text>
</g>
<g clip-path="url(#clip1901)">
<text style="fill:#000000; fill-opacity:1; font-family:Arial,Helvetica Neue,Helvetica,sans-serif; font-size:66px; text-anchor:middle;" transform="rotate(-90, 57.6, 743.863)" x="57.6" y="743.863">time[s]</text>
</g>
<circle clip-path="url(#clip1903)" style="fill:#000000; stroke:none; fill-opacity:1" cx="283.732" cy="1376.29" r="18"/>
<circle clip-path="url(#clip1903)" style="fill:#009af9; stroke:none; fill-opacity:1" cx="283.732" cy="1376.29" r="14"/>
<circle clip-path="url(#clip1903)" style="fill:#000000; stroke:none; fill-opacity:1" cx="679.368" cy="1299.91" r="18"/>
<circle clip-path="url(#clip1903)" style="fill:#009af9; stroke:none; fill-opacity:1" cx="679.368" cy="1299.91" r="14"/>
<circle clip-path="url(#clip1903)" style="fill:#000000; stroke:none; fill-opacity:1" cx="1075" cy="1140.44" r="18"/>
<circle clip-path="url(#clip1903)" style="fill:#009af9; stroke:none; fill-opacity:1" cx="1075" cy="1140.44" r="14"/>
<circle clip-path="url(#clip1903)" style="fill:#000000; stroke:none; fill-opacity:1" cx="1470.64" cy="939.252" r="18"/>
<circle clip-path="url(#clip1903)" style="fill:#009af9; stroke:none; fill-opacity:1" cx="1470.64" cy="939.252" r="14"/>
<circle clip-path="url(#clip1903)" style="fill:#000000; stroke:none; fill-opacity:1" cx="1866.28" cy="505.182" r="18"/>
<circle clip-path="url(#clip1903)" style="fill:#009af9; stroke:none; fill-opacity:1" cx="1866.28" cy="505.182" r="14"/>
<circle clip-path="url(#clip1903)" style="fill:#000000; stroke:none; fill-opacity:1" cx="2261.91" cy="145.278" r="18"/>
<circle clip-path="url(#clip1903)" style="fill:#009af9; stroke:none; fill-opacity:1" cx="2261.91" cy="145.278" r="14"/>
<polyline clip-path="url(#clip1903)" style="stroke:#009af9; stroke-width:4; stroke-opacity:1; fill:none" points="
  283.732,1391.69 283.732,1360.9 
  "/>
<polyline clip-path="url(#clip1903)" style="stroke:#009af9; stroke-width:4; stroke-opacity:1; fill:none" points="
  679.368,1329.8 679.368,1270.01 
  "/>
<polyline clip-path="url(#clip1903)" style="stroke:#009af9; stroke-width:4; stroke-opacity:1; fill:none" points="
  1075,1157.28 1075,1123.6 
  "/>
<polyline clip-path="url(#clip1903)" style="stroke:#009af9; stroke-width:4; stroke-opacity:1; fill:none" points="
  1470.64,960.576 1470.64,917.927 
  "/>
<polyline clip-path="url(#clip1903)" style="stroke:#009af9; stroke-width:4; stroke-opacity:1; fill:none" points="
  1866.28,544.93 1866.28,465.434 
  "/>
<polyline clip-path="url(#clip1903)" style="stroke:#009af9; stroke-width:4; stroke-opacity:1; fill:none" points="
  2261.91,203.881 2261.91,86.6754 
  "/>
<line clip-path="url(#clip1903)" x1="303.732" y1="1391.69" x2="263.732" y2="1391.69" style="stroke:#000000; stroke-width:4; stroke-opacity:1"/>
<line clip-path="url(#clip1903)" x1="303.732" y1="1360.9" x2="263.732" y2="1360.9" style="stroke:#000000; stroke-width:4; stroke-opacity:1"/>
<line clip-path="url(#clip1903)" x1="699.368" y1="1329.8" x2="659.368" y2="1329.8" style="stroke:#000000; stroke-width:4; stroke-opacity:1"/>
<line clip-path="url(#clip1903)" x1="699.368" y1="1270.01" x2="659.368" y2="1270.01" style="stroke:#000000; stroke-width:4; stroke-opacity:1"/>
<line clip-path="url(#clip1903)" x1="1095" y1="1157.28" x2="1055" y2="1157.28" style="stroke:#000000; stroke-width:4; stroke-opacity:1"/>
<line clip-path="url(#clip1903)" x1="1095" y1="1123.6" x2="1055" y2="1123.6" style="stroke:#000000; stroke-width:4; stroke-opacity:1"/>
<line clip-path="url(#clip1903)" x1="1490.64" y1="960.576" x2="1450.64" y2="960.576" style="stroke:#000000; stroke-width:4; stroke-opacity:1"/>
<line clip-path="url(#clip1903)" x1="1490.64" y1="917.927" x2="1450.64" y2="917.927" style="stroke:#000000; stroke-width:4; stroke-opacity:1"/>
<line clip-path="url(#clip1903)" x1="1886.28" y1="544.93" x2="1846.28" y2="544.93" style="stroke:#000000; stroke-width:4; stroke-opacity:1"/>
<line clip-path="url(#clip1903)" x1="1886.28" y1="465.434" x2="1846.28" y2="465.434" style="stroke:#000000; stroke-width:4; stroke-opacity:1"/>
<line clip-path="url(#clip1903)" x1="2281.91" y1="203.881" x2="2241.91" y2="203.881" style="stroke:#000000; stroke-width:4; stroke-opacity:1"/>
<line clip-path="url(#clip1903)" x1="2281.91" y1="86.6754" x2="2241.91" y2="86.6754" style="stroke:#000000; stroke-width:4; stroke-opacity:1"/>
<circle clip-path="url(#clip1903)" style="fill:#000000; stroke:none; fill-opacity:1" cx="283.732" cy="1371.96" r="18"/>
<circle clip-path="url(#clip1903)" style="fill:#e26f46; stroke:none; fill-opacity:1" cx="283.732" cy="1371.96" r="14"/>
<circle clip-path="url(#clip1903)" style="fill:#000000; stroke:none; fill-opacity:1" cx="679.368" cy="1338.99" r="18"/>
<circle clip-path="url(#clip1903)" style="fill:#e26f46; stroke:none; fill-opacity:1" cx="679.368" cy="1338.99" r="14"/>
<circle clip-path="url(#clip1903)" style="fill:#000000; stroke:none; fill-opacity:1" cx="1075" cy="1320.97" r="18"/>
<circle clip-path="url(#clip1903)" style="fill:#e26f46; stroke:none; fill-opacity:1" cx="1075" cy="1320.97" r="14"/>
<circle clip-path="url(#clip1903)" style="fill:#000000; stroke:none; fill-opacity:1" cx="1470.64" cy="1217.42" r="18"/>
<circle clip-path="url(#clip1903)" style="fill:#e26f46; stroke:none; fill-opacity:1" cx="1470.64" cy="1217.42" r="14"/>
<circle clip-path="url(#clip1903)" style="fill:#000000; stroke:none; fill-opacity:1" cx="1866.28" cy="1019.39" r="18"/>
<circle clip-path="url(#clip1903)" style="fill:#e26f46; stroke:none; fill-opacity:1" cx="1866.28" cy="1019.39" r="14"/>
<circle clip-path="url(#clip1903)" style="fill:#000000; stroke:none; fill-opacity:1" cx="2261.91" cy="845.674" r="18"/>
<circle clip-path="url(#clip1903)" style="fill:#e26f46; stroke:none; fill-opacity:1" cx="2261.91" cy="845.674" r="14"/>
<polyline clip-path="url(#clip1903)" style="stroke:#e26f46; stroke-width:4; stroke-opacity:1; fill:none" points="
  283.732,1401.05 283.732,1342.87 
  "/>
<polyline clip-path="url(#clip1903)" style="stroke:#e26f46; stroke-width:4; stroke-opacity:1; fill:none" points="
  679.368,1373.27 679.368,1304.71 
  "/>
<polyline clip-path="url(#clip1903)" style="stroke:#e26f46; stroke-width:4; stroke-opacity:1; fill:none" points="
  1075,1323.73 1075,1318.21 
  "/>
<polyline clip-path="url(#clip1903)" style="stroke:#e26f46; stroke-width:4; stroke-opacity:1; fill:none" points="
  1470.64,1223.76 1470.64,1211.09 
  "/>
<polyline clip-path="url(#clip1903)" style="stroke:#e26f46; stroke-width:4; stroke-opacity:1; fill:none" points="
  1866.28,1080.61 1866.28,958.174 
  "/>
<polyline clip-path="url(#clip1903)" style="stroke:#e26f46; stroke-width:4; stroke-opacity:1; fill:none" points="
  2261.91,870.952 2261.91,820.397 
  "/>
<line clip-path="url(#clip1903)" x1="303.732" y1="1401.05" x2="263.732" y2="1401.05" style="stroke:#000000; stroke-width:4; stroke-opacity:1"/>
<line clip-path="url(#clip1903)" x1="303.732" y1="1342.87" x2="263.732" y2="1342.87" style="stroke:#000000; stroke-width:4; stroke-opacity:1"/>
<line clip-path="url(#clip1903)" x1="699.368" y1="1373.27" x2="659.368" y2="1373.27" style="stroke:#000000; stroke-width:4; stroke-opacity:1"/>
<line clip-path="url(#clip1903)" x1="699.368" y1="1304.71" x2="659.368" y2="1304.71" style="stroke:#000000; stroke-width:4; stroke-opacity:1"/>
<line clip-path="url(#clip1903)" x1="1095" y1="1323.73" x2="1055" y2="1323.73" style="stroke:#000000; stroke-width:4; stroke-opacity:1"/>
<line clip-path="url(#clip1903)" x1="1095" y1="1318.21" x2="1055" y2="1318.21" style="stroke:#000000; stroke-width:4; stroke-opacity:1"/>
<line clip-path="url(#clip1903)" x1="1490.64" y1="1223.76" x2="1450.64" y2="1223.76" style="stroke:#000000; stroke-width:4; stroke-opacity:1"/>
<line clip-path="url(#clip1903)" x1="1490.64" y1="1211.09" x2="1450.64" y2="1211.09" style="stroke:#000000; stroke-width:4; stroke-opacity:1"/>
<line clip-path="url(#clip1903)" x1="1886.28" y1="1080.61" x2="1846.28" y2="1080.61" style="stroke:#000000; stroke-width:4; stroke-opacity:1"/>
<line clip-path="url(#clip1903)" x1="1886.28" y1="958.174" x2="1846.28" y2="958.174" style="stroke:#000000; stroke-width:4; stroke-opacity:1"/>
<line clip-path="url(#clip1903)" x1="2281.91" y1="870.952" x2="2241.91" y2="870.952" style="stroke:#000000; stroke-width:4; stroke-opacity:1"/>
<line clip-path="url(#clip1903)" x1="2281.91" y1="820.397" x2="2241.91" y2="820.397" style="stroke:#000000; stroke-width:4; stroke-opacity:1"/>
<circle clip-path="url(#clip1903)" style="fill:#000000; stroke:none; fill-opacity:1" cx="283.732" cy="1381.16" r="18"/>
<circle clip-path="url(#clip1903)" style="fill:#3da44d; stroke:none; fill-opacity:1" cx="283.732" cy="1381.16" r="14"/>
<circle clip-path="url(#clip1903)" style="fill:#000000; stroke:none; fill-opacity:1" cx="679.368" cy="1356.98" r="18"/>
<circle clip-path="url(#clip1903)" style="fill:#3da44d; stroke:none; fill-opacity:1" cx="679.368" cy="1356.98" r="14"/>
<circle clip-path="url(#clip1903)" style="fill:#000000; stroke:none; fill-opacity:1" cx="1075" cy="1372.09" r="18"/>
<circle clip-path="url(#clip1903)" style="fill:#3da44d; stroke:none; fill-opacity:1" cx="1075" cy="1372.09" r="14"/>
<circle clip-path="url(#clip1903)" style="fill:#000000; stroke:none; fill-opacity:1" cx="1470.64" cy="1374.47" r="18"/>
<circle clip-path="url(#clip1903)" style="fill:#3da44d; stroke:none; fill-opacity:1" cx="1470.64" cy="1374.47" r="14"/>
<circle clip-path="url(#clip1903)" style="fill:#000000; stroke:none; fill-opacity:1" cx="1866.28" cy="1371.08" r="18"/>
<circle clip-path="url(#clip1903)" style="fill:#3da44d; stroke:none; fill-opacity:1" cx="1866.28" cy="1371.08" r="14"/>
<circle clip-path="url(#clip1903)" style="fill:#000000; stroke:none; fill-opacity:1" cx="2261.91" cy="1369.58" r="18"/>
<circle clip-path="url(#clip1903)" style="fill:#3da44d; stroke:none; fill-opacity:1" cx="2261.91" cy="1369.58" r="14"/>
<polyline clip-path="url(#clip1903)" style="stroke:#3da44d; stroke-width:4; stroke-opacity:1; fill:none" points="
  283.732,1381.16 283.732,1381.15 
  "/>
<polyline clip-path="url(#clip1903)" style="stroke:#3da44d; stroke-width:4; stroke-opacity:1; fill:none" points="
  679.368,1393.35 679.368,1320.61 
  "/>
<polyline clip-path="url(#clip1903)" style="stroke:#3da44d; stroke-width:4; stroke-opacity:1; fill:none" points="
  1075,1389.02 1075,1355.16 
  "/>
<polyline clip-path="url(#clip1903)" style="stroke:#3da44d; stroke-width:4; stroke-opacity:1; fill:none" points="
  1470.64,1376 1470.64,1372.94 
  "/>
<polyline clip-path="url(#clip1903)" style="stroke:#3da44d; stroke-width:4; stroke-opacity:1; fill:none" points="
  1866.28,1374.1 1866.28,1368.06 
  "/>
<polyline clip-path="url(#clip1903)" style="stroke:#3da44d; stroke-width:4; stroke-opacity:1; fill:none" points="
  2261.91,1371.43 2261.91,1367.73 
  "/>
<line clip-path="url(#clip1903)" x1="303.732" y1="1381.16" x2="263.732" y2="1381.16" style="stroke:#000000; stroke-width:4; stroke-opacity:1"/>
<line clip-path="url(#clip1903)" x1="303.732" y1="1381.15" x2="263.732" y2="1381.15" style="stroke:#000000; stroke-width:4; stroke-opacity:1"/>
<line clip-path="url(#clip1903)" x1="699.368" y1="1393.35" x2="659.368" y2="1393.35" style="stroke:#000000; stroke-width:4; stroke-opacity:1"/>
<line clip-path="url(#clip1903)" x1="699.368" y1="1320.61" x2="659.368" y2="1320.61" style="stroke:#000000; stroke-width:4; stroke-opacity:1"/>
<line clip-path="url(#clip1903)" x1="1095" y1="1389.02" x2="1055" y2="1389.02" style="stroke:#000000; stroke-width:4; stroke-opacity:1"/>
<line clip-path="url(#clip1903)" x1="1095" y1="1355.16" x2="1055" y2="1355.16" style="stroke:#000000; stroke-width:4; stroke-opacity:1"/>
<line clip-path="url(#clip1903)" x1="1490.64" y1="1376" x2="1450.64" y2="1376" style="stroke:#000000; stroke-width:4; stroke-opacity:1"/>
<line clip-path="url(#clip1903)" x1="1490.64" y1="1372.94" x2="1450.64" y2="1372.94" style="stroke:#000000; stroke-width:4; stroke-opacity:1"/>
<line clip-path="url(#clip1903)" x1="1886.28" y1="1374.1" x2="1846.28" y2="1374.1" style="stroke:#000000; stroke-width:4; stroke-opacity:1"/>
<line clip-path="url(#clip1903)" x1="1886.28" y1="1368.06" x2="1846.28" y2="1368.06" style="stroke:#000000; stroke-width:4; stroke-opacity:1"/>
<line clip-path="url(#clip1903)" x1="2281.91" y1="1371.43" x2="2241.91" y2="1371.43" style="stroke:#000000; stroke-width:4; stroke-opacity:1"/>
<line clip-path="url(#clip1903)" x1="2281.91" y1="1367.73" x2="2241.91" y2="1367.73" style="stroke:#000000; stroke-width:4; stroke-opacity:1"/>
<polygon clip-path="url(#clip1901)" points="
1749.82,372.684 2249.26,372.684 2249.26,130.764 1749.82,130.764 
  " fill="#ffffff" fill-rule="evenodd" fill-opacity="1"/>
<polyline clip-path="url(#clip1901)" style="stroke:#000000; stroke-width:4; stroke-opacity:1; fill:none" points="
  1749.82,372.684 2249.26,372.684 2249.26,130.764 1749.82,130.764 1749.82,372.684 
  "/>
<circle clip-path="url(#clip1901)" style="fill:#000000; stroke:none; fill-opacity:1" cx="1857.82" cy="191.244" r="25"/>
<circle clip-path="url(#clip1901)" style="fill:#009af9; stroke:none; fill-opacity:1" cx="1857.82" cy="191.244" r="21"/>
<g clip-path="url(#clip1901)">
<text style="fill:#000000; fill-opacity:1; font-family:Arial,Helvetica Neue,Helvetica,sans-serif; font-size:48px; text-anchor:start;" transform="rotate(0, 1941.82, 208.744)" x="1941.82" y="208.744">La Grange</text>
</g>
<circle clip-path="url(#clip1901)" style="fill:#000000; stroke:none; fill-opacity:1" cx="1857.82" cy="251.724" r="25"/>
<circle clip-path="url(#clip1901)" style="fill:#e26f46; stroke:none; fill-opacity:1" cx="1857.82" cy="251.724" r="21"/>
<g clip-path="url(#clip1901)">
<text style="fill:#000000; fill-opacity:1; font-family:Arial,Helvetica Neue,Helvetica,sans-serif; font-size:48px; text-anchor:start;" transform="rotate(0, 1941.82, 269.224)" x="1941.82" y="269.224">Newton</text>
</g>
<circle clip-path="url(#clip1901)" style="fill:#000000; stroke:none; fill-opacity:1" cx="1857.82" cy="312.204" r="25"/>
<circle clip-path="url(#clip1901)" style="fill:#3da44d; stroke:none; fill-opacity:1" cx="1857.82" cy="312.204" r="21"/>
<g clip-path="url(#clip1901)">
<text style="fill:#000000; fill-opacity:1; font-family:Arial,Helvetica Neue,Helvetica,sans-serif; font-size:48px; text-anchor:start;" transform="rotate(0, 1941.82, 329.704)" x="1941.82" y="329.704">Polynomials</text>
</g>
</svg>
