<?xml version="1.0" encoding="utf-8"?>
<svg xmlns="http://www.w3.org/2000/svg" xmlns:xlink="http://www.w3.org/1999/xlink" width="600" height="400" viewBox="0 0 2400 1600">
<defs>
  <clipPath id="clip9500">
    <rect x="0" y="0" width="2000" height="2000"/>
  </clipPath>
</defs>
<defs>
  <clipPath id="clip9501">
    <rect x="0" y="0" width="2400" height="1600"/>
  </clipPath>
</defs>
<polygon clip-path="url(#clip9501)" points="
0,1600 2400,1600 2400,0 0,0 
  " fill="#ffffff" fill-rule="evenodd" fill-opacity="1"/>
<defs>
  <clipPath id="clip9502">
    <rect x="480" y="0" width="1681" height="1600"/>
  </clipPath>
</defs>
<polygon clip-path="url(#clip9501)" points="
224.386,1440.48 2321.26,1440.48 2321.26,47.2441 224.386,47.2441 
  " fill="#ffffff" fill-rule="evenodd" fill-opacity="1"/>
<defs>
  <clipPath id="clip9503">
    <rect x="224" y="47" width="2098" height="1394"/>
  </clipPath>
</defs>
<polyline clip-path="url(#clip9503)" style="stroke:#000000; stroke-width:2; stroke-opacity:0.1; fill:none" points="
  279.775,1440.48 279.775,47.2441 
  "/>
<polyline clip-path="url(#clip9503)" style="stroke:#000000; stroke-width:2; stroke-opacity:0.1; fill:none" points="
  675.412,1440.48 675.412,47.2441 
  "/>
<polyline clip-path="url(#clip9503)" style="stroke:#000000; stroke-width:2; stroke-opacity:0.1; fill:none" points="
  1071.05,1440.48 1071.05,47.2441 
  "/>
<polyline clip-path="url(#clip9503)" style="stroke:#000000; stroke-width:2; stroke-opacity:0.1; fill:none" points="
  1466.68,1440.48 1466.68,47.2441 
  "/>
<polyline clip-path="url(#clip9503)" style="stroke:#000000; stroke-width:2; stroke-opacity:0.1; fill:none" points="
  1862.32,1440.48 1862.32,47.2441 
  "/>
<polyline clip-path="url(#clip9503)" style="stroke:#000000; stroke-width:2; stroke-opacity:0.1; fill:none" points="
  2257.96,1440.48 2257.96,47.2441 
  "/>
<polyline clip-path="url(#clip9503)" style="stroke:#000000; stroke-width:2; stroke-opacity:0.1; fill:none" points="
  224.386,1387.49 2321.26,1387.49 
  "/>
<polyline clip-path="url(#clip9503)" style="stroke:#000000; stroke-width:2; stroke-opacity:0.1; fill:none" points="
  224.386,940.973 2321.26,940.973 
  "/>
<polyline clip-path="url(#clip9503)" style="stroke:#000000; stroke-width:2; stroke-opacity:0.1; fill:none" points="
  224.386,494.452 2321.26,494.452 
  "/>
<polyline clip-path="url(#clip9503)" style="stroke:#000000; stroke-width:2; stroke-opacity:0.1; fill:none" points="
  224.386,47.931 2321.26,47.931 
  "/>
<polyline clip-path="url(#clip9501)" style="stroke:#000000; stroke-width:4; stroke-opacity:1; fill:none" points="
  224.386,1440.48 2321.26,1440.48 
  "/>
<polyline clip-path="url(#clip9501)" style="stroke:#000000; stroke-width:4; stroke-opacity:1; fill:none" points="
  224.386,1440.48 224.386,47.2441 
  "/>
<polyline clip-path="url(#clip9501)" style="stroke:#000000; stroke-width:4; stroke-opacity:1; fill:none" points="
  279.775,1440.48 279.775,1419.58 
  "/>
<polyline clip-path="url(#clip9501)" style="stroke:#000000; stroke-width:4; stroke-opacity:1; fill:none" points="
  675.412,1440.48 675.412,1419.58 
  "/>
<polyline clip-path="url(#clip9501)" style="stroke:#000000; stroke-width:4; stroke-opacity:1; fill:none" points="
  1071.05,1440.48 1071.05,1419.58 
  "/>
<polyline clip-path="url(#clip9501)" style="stroke:#000000; stroke-width:4; stroke-opacity:1; fill:none" points="
  1466.68,1440.48 1466.68,1419.58 
  "/>
<polyline clip-path="url(#clip9501)" style="stroke:#000000; stroke-width:4; stroke-opacity:1; fill:none" points="
  1862.32,1440.48 1862.32,1419.58 
  "/>
<polyline clip-path="url(#clip9501)" style="stroke:#000000; stroke-width:4; stroke-opacity:1; fill:none" points="
  2257.96,1440.48 2257.96,1419.58 
  "/>
<polyline clip-path="url(#clip9501)" style="stroke:#000000; stroke-width:4; stroke-opacity:1; fill:none" points="
  224.386,1387.49 255.839,1387.49 
  "/>
<polyline clip-path="url(#clip9501)" style="stroke:#000000; stroke-width:4; stroke-opacity:1; fill:none" points="
  224.386,940.973 255.839,940.973 
  "/>
<polyline clip-path="url(#clip9501)" style="stroke:#000000; stroke-width:4; stroke-opacity:1; fill:none" points="
  224.386,494.452 255.839,494.452 
  "/>
<polyline clip-path="url(#clip9501)" style="stroke:#000000; stroke-width:4; stroke-opacity:1; fill:none" points="
  224.386,47.931 255.839,47.931 
  "/>
<g clip-path="url(#clip9501)">
<text style="fill:#000000; fill-opacity:1; font-family:Arial,Helvetica Neue,Helvetica,sans-serif; font-size:48px; text-anchor:middle;" transform="rotate(0, 279.775, 1494.48)" x="279.775" y="1494.48">0</text>
</g>
<g clip-path="url(#clip9501)">
<text style="fill:#000000; fill-opacity:1; font-family:Arial,Helvetica Neue,Helvetica,sans-serif; font-size:48px; text-anchor:middle;" transform="rotate(0, 675.412, 1494.48)" x="675.412" y="1494.48">100</text>
</g>
<g clip-path="url(#clip9501)">
<text style="fill:#000000; fill-opacity:1; font-family:Arial,Helvetica Neue,Helvetica,sans-serif; font-size:48px; text-anchor:middle;" transform="rotate(0, 1071.05, 1494.48)" x="1071.05" y="1494.48">200</text>
</g>
<g clip-path="url(#clip9501)">
<text style="fill:#000000; fill-opacity:1; font-family:Arial,Helvetica Neue,Helvetica,sans-serif; font-size:48px; text-anchor:middle;" transform="rotate(0, 1466.68, 1494.48)" x="1466.68" y="1494.48">300</text>
</g>
<g clip-path="url(#clip9501)">
<text style="fill:#000000; fill-opacity:1; font-family:Arial,Helvetica Neue,Helvetica,sans-serif; font-size:48px; text-anchor:middle;" transform="rotate(0, 1862.32, 1494.48)" x="1862.32" y="1494.48">400</text>
</g>
<g clip-path="url(#clip9501)">
<text style="fill:#000000; fill-opacity:1; font-family:Arial,Helvetica Neue,Helvetica,sans-serif; font-size:48px; text-anchor:middle;" transform="rotate(0, 2257.96, 1494.48)" x="2257.96" y="1494.48">500</text>
</g>
<g clip-path="url(#clip9501)">
<text style="fill:#000000; fill-opacity:1; font-family:Arial,Helvetica Neue,Helvetica,sans-serif; font-size:48px; text-anchor:end;" transform="rotate(0, 200.386, 1404.99)" x="200.386" y="1404.99">0.0</text>
</g>
<g clip-path="url(#clip9501)">
<text style="fill:#000000; fill-opacity:1; font-family:Arial,Helvetica Neue,Helvetica,sans-serif; font-size:48px; text-anchor:end;" transform="rotate(0, 200.386, 958.473)" x="200.386" y="958.473">0.5</text>
</g>
<g clip-path="url(#clip9501)">
<text style="fill:#000000; fill-opacity:1; font-family:Arial,Helvetica Neue,Helvetica,sans-serif; font-size:48px; text-anchor:end;" transform="rotate(0, 200.386, 511.952)" x="200.386" y="511.952">1.0</text>
</g>
<g clip-path="url(#clip9501)">
<text style="fill:#000000; fill-opacity:1; font-family:Arial,Helvetica Neue,Helvetica,sans-serif; font-size:48px; text-anchor:end;" transform="rotate(0, 200.386, 65.431)" x="200.386" y="65.431">1.5</text>
</g>
<g clip-path="url(#clip9501)">
<text style="fill:#000000; fill-opacity:1; font-family:Arial,Helvetica Neue,Helvetica,sans-serif; font-size:66px; text-anchor:middle;" transform="rotate(0, 1272.82, 1590.4)" x="1272.82" y="1590.4">number_of_points</text>
</g>
<g clip-path="url(#clip9501)">
<text style="fill:#000000; fill-opacity:1; font-family:Arial,Helvetica Neue,Helvetica,sans-serif; font-size:66px; text-anchor:middle;" transform="rotate(-90, 57.6, 743.863)" x="57.6" y="743.863">time[s]</text>
</g>
<circle clip-path="url(#clip9503)" style="fill:#000000; stroke:none; fill-opacity:1" cx="283.732" cy="1387.49" r="18"/>
<circle clip-path="url(#clip9503)" style="fill:#009af9; stroke:none; fill-opacity:1" cx="283.732" cy="1387.49" r="14"/>
<circle clip-path="url(#clip9503)" style="fill:#000000; stroke:none; fill-opacity:1" cx="679.368" cy="1287.22" r="18"/>
<circle clip-path="url(#clip9503)" style="fill:#009af9; stroke:none; fill-opacity:1" cx="679.368" cy="1287.22" r="14"/>
<circle clip-path="url(#clip9503)" style="fill:#000000; stroke:none; fill-opacity:1" cx="1075" cy="1180.58" r="18"/>
<circle clip-path="url(#clip9503)" style="fill:#009af9; stroke:none; fill-opacity:1" cx="1075" cy="1180.58" r="14"/>
<circle clip-path="url(#clip9503)" style="fill:#000000; stroke:none; fill-opacity:1" cx="1470.64" cy="932.481" r="18"/>
<circle clip-path="url(#clip9503)" style="fill:#009af9; stroke:none; fill-opacity:1" cx="1470.64" cy="932.481" r="14"/>
<circle clip-path="url(#clip9503)" style="fill:#000000; stroke:none; fill-opacity:1" cx="1866.28" cy="607.514" r="18"/>
<circle clip-path="url(#clip9503)" style="fill:#009af9; stroke:none; fill-opacity:1" cx="1866.28" cy="607.514" r="14"/>
<circle clip-path="url(#clip9503)" style="fill:#000000; stroke:none; fill-opacity:1" cx="2261.91" cy="127.627" r="18"/>
<circle clip-path="url(#clip9503)" style="fill:#009af9; stroke:none; fill-opacity:1" cx="2261.91" cy="127.627" r="14"/>
<polyline clip-path="url(#clip9503)" style="stroke:#009af9; stroke-width:4; stroke-opacity:1; fill:none" points="
  283.732,1387.49 283.732,1387.49 
  "/>
<polyline clip-path="url(#clip9503)" style="stroke:#009af9; stroke-width:4; stroke-opacity:1; fill:none" points="
  679.368,1322.97 679.368,1251.48 
  "/>
<polyline clip-path="url(#clip9503)" style="stroke:#009af9; stroke-width:4; stroke-opacity:1; fill:none" points="
  1075,1200.42 1075,1160.75 
  "/>
<polyline clip-path="url(#clip9503)" style="stroke:#009af9; stroke-width:4; stroke-opacity:1; fill:none" points="
  1470.64,940.039 1470.64,924.922 
  "/>
<polyline clip-path="url(#clip9503)" style="stroke:#009af9; stroke-width:4; stroke-opacity:1; fill:none" points="
  1866.28,633.541 1866.28,581.487 
  "/>
<polyline clip-path="url(#clip9503)" style="stroke:#009af9; stroke-width:4; stroke-opacity:1; fill:none" points="
  2261.91,168.578 2261.91,86.6754 
  "/>
<line clip-path="url(#clip9503)" x1="303.732" y1="1387.49" x2="263.732" y2="1387.49" style="stroke:#000000; stroke-width:4; stroke-opacity:1"/>
<line clip-path="url(#clip9503)" x1="303.732" y1="1387.49" x2="263.732" y2="1387.49" style="stroke:#000000; stroke-width:4; stroke-opacity:1"/>
<line clip-path="url(#clip9503)" x1="699.368" y1="1322.97" x2="659.368" y2="1322.97" style="stroke:#000000; stroke-width:4; stroke-opacity:1"/>
<line clip-path="url(#clip9503)" x1="699.368" y1="1251.48" x2="659.368" y2="1251.48" style="stroke:#000000; stroke-width:4; stroke-opacity:1"/>
<line clip-path="url(#clip9503)" x1="1095" y1="1200.42" x2="1055" y2="1200.42" style="stroke:#000000; stroke-width:4; stroke-opacity:1"/>
<line clip-path="url(#clip9503)" x1="1095" y1="1160.75" x2="1055" y2="1160.75" style="stroke:#000000; stroke-width:4; stroke-opacity:1"/>
<line clip-path="url(#clip9503)" x1="1490.64" y1="940.039" x2="1450.64" y2="940.039" style="stroke:#000000; stroke-width:4; stroke-opacity:1"/>
<line clip-path="url(#clip9503)" x1="1490.64" y1="924.922" x2="1450.64" y2="924.922" style="stroke:#000000; stroke-width:4; stroke-opacity:1"/>
<line clip-path="url(#clip9503)" x1="1886.28" y1="633.541" x2="1846.28" y2="633.541" style="stroke:#000000; stroke-width:4; stroke-opacity:1"/>
<line clip-path="url(#clip9503)" x1="1886.28" y1="581.487" x2="1846.28" y2="581.487" style="stroke:#000000; stroke-width:4; stroke-opacity:1"/>
<line clip-path="url(#clip9503)" x1="2281.91" y1="168.578" x2="2241.91" y2="168.578" style="stroke:#000000; stroke-width:4; stroke-opacity:1"/>
<line clip-path="url(#clip9503)" x1="2281.91" y1="86.6754" x2="2241.91" y2="86.6754" style="stroke:#000000; stroke-width:4; stroke-opacity:1"/>
<circle clip-path="url(#clip9503)" style="fill:#000000; stroke:none; fill-opacity:1" cx="283.732" cy="1387.49" r="18"/>
<circle clip-path="url(#clip9503)" style="fill:#e26f46; stroke:none; fill-opacity:1" cx="283.732" cy="1387.49" r="14"/>
<circle clip-path="url(#clip9503)" style="fill:#000000; stroke:none; fill-opacity:1" cx="679.368" cy="1369.4" r="18"/>
<circle clip-path="url(#clip9503)" style="fill:#e26f46; stroke:none; fill-opacity:1" cx="679.368" cy="1369.4" r="14"/>
<circle clip-path="url(#clip9503)" style="fill:#000000; stroke:none; fill-opacity:1" cx="1075" cy="1323.68" r="18"/>
<circle clip-path="url(#clip9503)" style="fill:#e26f46; stroke:none; fill-opacity:1" cx="1075" cy="1323.68" r="14"/>
<circle clip-path="url(#clip9503)" style="fill:#000000; stroke:none; fill-opacity:1" cx="1470.64" cy="1223.96" r="18"/>
<circle clip-path="url(#clip9503)" style="fill:#e26f46; stroke:none; fill-opacity:1" cx="1470.64" cy="1223.96" r="14"/>
<circle clip-path="url(#clip9503)" style="fill:#000000; stroke:none; fill-opacity:1" cx="1866.28" cy="1060.45" r="18"/>
<circle clip-path="url(#clip9503)" style="fill:#e26f46; stroke:none; fill-opacity:1" cx="1866.28" cy="1060.45" r="14"/>
<circle clip-path="url(#clip9503)" style="fill:#000000; stroke:none; fill-opacity:1" cx="2261.91" cy="842.184" r="18"/>
<circle clip-path="url(#clip9503)" style="fill:#e26f46; stroke:none; fill-opacity:1" cx="2261.91" cy="842.184" r="14"/>
<polyline clip-path="url(#clip9503)" style="stroke:#e26f46; stroke-width:4; stroke-opacity:1; fill:none" points="
  283.732,1387.49 283.732,1387.49 
  "/>
<polyline clip-path="url(#clip9503)" style="stroke:#e26f46; stroke-width:4; stroke-opacity:1; fill:none" points="
  679.368,1389.84 679.368,1348.97 
  "/>
<polyline clip-path="url(#clip9503)" style="stroke:#e26f46; stroke-width:4; stroke-opacity:1; fill:none" points="
  1075,1328.37 1075,1318.99 
  "/>
<polyline clip-path="url(#clip9503)" style="stroke:#e26f46; stroke-width:4; stroke-opacity:1; fill:none" points="
  1470.64,1227.2 1470.64,1220.71 
  "/>
<polyline clip-path="url(#clip9503)" style="stroke:#e26f46; stroke-width:4; stroke-opacity:1; fill:none" points="
  1866.28,1121.02 1866.28,999.889 
  "/>
<polyline clip-path="url(#clip9503)" style="stroke:#e26f46; stroke-width:4; stroke-opacity:1; fill:none" points="
  2261.91,855.242 2261.91,829.126 
  "/>
<line clip-path="url(#clip9503)" x1="303.732" y1="1387.49" x2="263.732" y2="1387.49" style="stroke:#000000; stroke-width:4; stroke-opacity:1"/>
<line clip-path="url(#clip9503)" x1="303.732" y1="1387.49" x2="263.732" y2="1387.49" style="stroke:#000000; stroke-width:4; stroke-opacity:1"/>
<line clip-path="url(#clip9503)" x1="699.368" y1="1389.84" x2="659.368" y2="1389.84" style="stroke:#000000; stroke-width:4; stroke-opacity:1"/>
<line clip-path="url(#clip9503)" x1="699.368" y1="1348.97" x2="659.368" y2="1348.97" style="stroke:#000000; stroke-width:4; stroke-opacity:1"/>
<line clip-path="url(#clip9503)" x1="1095" y1="1328.37" x2="1055" y2="1328.37" style="stroke:#000000; stroke-width:4; stroke-opacity:1"/>
<line clip-path="url(#clip9503)" x1="1095" y1="1318.99" x2="1055" y2="1318.99" style="stroke:#000000; stroke-width:4; stroke-opacity:1"/>
<line clip-path="url(#clip9503)" x1="1490.64" y1="1227.2" x2="1450.64" y2="1227.2" style="stroke:#000000; stroke-width:4; stroke-opacity:1"/>
<line clip-path="url(#clip9503)" x1="1490.64" y1="1220.71" x2="1450.64" y2="1220.71" style="stroke:#000000; stroke-width:4; stroke-opacity:1"/>
<line clip-path="url(#clip9503)" x1="1886.28" y1="1121.02" x2="1846.28" y2="1121.02" style="stroke:#000000; stroke-width:4; stroke-opacity:1"/>
<line clip-path="url(#clip9503)" x1="1886.28" y1="999.889" x2="1846.28" y2="999.889" style="stroke:#000000; stroke-width:4; stroke-opacity:1"/>
<line clip-path="url(#clip9503)" x1="2281.91" y1="855.242" x2="2241.91" y2="855.242" style="stroke:#000000; stroke-width:4; stroke-opacity:1"/>
<line clip-path="url(#clip9503)" x1="2281.91" y1="829.126" x2="2241.91" y2="829.126" style="stroke:#000000; stroke-width:4; stroke-opacity:1"/>
<circle clip-path="url(#clip9503)" style="fill:#000000; stroke:none; fill-opacity:1" cx="283.732" cy="1387.49" r="18"/>
<circle clip-path="url(#clip9503)" style="fill:#3da44d; stroke:none; fill-opacity:1" cx="283.732" cy="1387.49" r="14"/>
<circle clip-path="url(#clip9503)" style="fill:#000000; stroke:none; fill-opacity:1" cx="679.368" cy="1372.39" r="18"/>
<circle clip-path="url(#clip9503)" style="fill:#3da44d; stroke:none; fill-opacity:1" cx="679.368" cy="1372.39" r="14"/>
<circle clip-path="url(#clip9503)" style="fill:#000000; stroke:none; fill-opacity:1" cx="1075" cy="1383.87" r="18"/>
<circle clip-path="url(#clip9503)" style="fill:#3da44d; stroke:none; fill-opacity:1" cx="1075" cy="1383.87" r="14"/>
<circle clip-path="url(#clip9503)" style="fill:#000000; stroke:none; fill-opacity:1" cx="1470.64" cy="1381.41" r="18"/>
<circle clip-path="url(#clip9503)" style="fill:#3da44d; stroke:none; fill-opacity:1" cx="1470.64" cy="1381.41" r="14"/>
<circle clip-path="url(#clip9503)" style="fill:#000000; stroke:none; fill-opacity:1" cx="1866.28" cy="1378.68" r="18"/>
<circle clip-path="url(#clip9503)" style="fill:#3da44d; stroke:none; fill-opacity:1" cx="1866.28" cy="1378.68" r="14"/>
<circle clip-path="url(#clip9503)" style="fill:#000000; stroke:none; fill-opacity:1" cx="2261.91" cy="1376.5" r="18"/>
<circle clip-path="url(#clip9503)" style="fill:#3da44d; stroke:none; fill-opacity:1" cx="2261.91" cy="1376.5" r="14"/>
<polyline clip-path="url(#clip9503)" style="stroke:#3da44d; stroke-width:4; stroke-opacity:1; fill:none" points="
  283.732,1387.5 283.732,1387.48 
  "/>
<polyline clip-path="url(#clip9503)" style="stroke:#3da44d; stroke-width:4; stroke-opacity:1; fill:none" points="
  679.368,1401.05 679.368,1343.72 
  "/>
<polyline clip-path="url(#clip9503)" style="stroke:#3da44d; stroke-width:4; stroke-opacity:1; fill:none" points="
  1075,1384.35 1075,1383.4 
  "/>
<polyline clip-path="url(#clip9503)" style="stroke:#3da44d; stroke-width:4; stroke-opacity:1; fill:none" points="
  1470.64,1382.18 1470.64,1380.64 
  "/>
<polyline clip-path="url(#clip9503)" style="stroke:#3da44d; stroke-width:4; stroke-opacity:1; fill:none" points="
  1866.28,1381.02 1866.28,1376.34 
  "/>
<polyline clip-path="url(#clip9503)" style="stroke:#3da44d; stroke-width:4; stroke-opacity:1; fill:none" points="
  2261.91,1379.4 2261.91,1373.6 
  "/>
<line clip-path="url(#clip9503)" x1="303.732" y1="1387.5" x2="263.732" y2="1387.5" style="stroke:#000000; stroke-width:4; stroke-opacity:1"/>
<line clip-path="url(#clip9503)" x1="303.732" y1="1387.48" x2="263.732" y2="1387.48" style="stroke:#000000; stroke-width:4; stroke-opacity:1"/>
<line clip-path="url(#clip9503)" x1="699.368" y1="1401.05" x2="659.368" y2="1401.05" style="stroke:#000000; stroke-width:4; stroke-opacity:1"/>
<line clip-path="url(#clip9503)" x1="699.368" y1="1343.72" x2="659.368" y2="1343.72" style="stroke:#000000; stroke-width:4; stroke-opacity:1"/>
<line clip-path="url(#clip9503)" x1="1095" y1="1384.35" x2="1055" y2="1384.35" style="stroke:#000000; stroke-width:4; stroke-opacity:1"/>
<line clip-path="url(#clip9503)" x1="1095" y1="1383.4" x2="1055" y2="1383.4" style="stroke:#000000; stroke-width:4; stroke-opacity:1"/>
<line clip-path="url(#clip9503)" x1="1490.64" y1="1382.18" x2="1450.64" y2="1382.18" style="stroke:#000000; stroke-width:4; stroke-opacity:1"/>
<line clip-path="url(#clip9503)" x1="1490.64" y1="1380.64" x2="1450.64" y2="1380.64" style="stroke:#000000; stroke-width:4; stroke-opacity:1"/>
<line clip-path="url(#clip9503)" x1="1886.28" y1="1381.02" x2="1846.28" y2="1381.02" style="stroke:#000000; stroke-width:4; stroke-opacity:1"/>
<line clip-path="url(#clip9503)" x1="1886.28" y1="1376.34" x2="1846.28" y2="1376.34" style="stroke:#000000; stroke-width:4; stroke-opacity:1"/>
<line clip-path="url(#clip9503)" x1="2281.91" y1="1379.4" x2="2241.91" y2="1379.4" style="stroke:#000000; stroke-width:4; stroke-opacity:1"/>
<line clip-path="url(#clip9503)" x1="2281.91" y1="1373.6" x2="2241.91" y2="1373.6" style="stroke:#000000; stroke-width:4; stroke-opacity:1"/>
<polygon clip-path="url(#clip9501)" points="
1982.5,372.684 2249.26,372.684 2249.26,130.764 1982.5,130.764 
  " fill="#ffffff" fill-rule="evenodd" fill-opacity="1"/>
<polyline clip-path="url(#clip9501)" style="stroke:#000000; stroke-width:4; stroke-opacity:1; fill:none" points="
  1982.5,372.684 2249.26,372.684 2249.26,130.764 1982.5,130.764 1982.5,372.684 
  "/>
<circle clip-path="url(#clip9501)" style="fill:#000000; stroke:none; fill-opacity:1" cx="2090.5" cy="191.244" r="25"/>
<circle clip-path="url(#clip9501)" style="fill:#009af9; stroke:none; fill-opacity:1" cx="2090.5" cy="191.244" r="21"/>
<g clip-path="url(#clip9501)">
<text style="fill:#000000; fill-opacity:1; font-family:Arial,Helvetica Neue,Helvetica,sans-serif; font-size:48px; text-anchor:start;" transform="rotate(0, 2174.5, 208.744)" x="2174.5" y="208.744">1</text>
</g>
<circle clip-path="url(#clip9501)" style="fill:#000000; stroke:none; fill-opacity:1" cx="2090.5" cy="251.724" r="25"/>
<circle clip-path="url(#clip9501)" style="fill:#e26f46; stroke:none; fill-opacity:1" cx="2090.5" cy="251.724" r="21"/>
<g clip-path="url(#clip9501)">
<text style="fill:#000000; fill-opacity:1; font-family:Arial,Helvetica Neue,Helvetica,sans-serif; font-size:48px; text-anchor:start;" transform="rotate(0, 2174.5, 269.224)" x="2174.5" y="269.224">2</text>
</g>
<circle clip-path="url(#clip9501)" style="fill:#000000; stroke:none; fill-opacity:1" cx="2090.5" cy="312.204" r="25"/>
<circle clip-path="url(#clip9501)" style="fill:#3da44d; stroke:none; fill-opacity:1" cx="2090.5" cy="312.204" r="21"/>
<g clip-path="url(#clip9501)">
<text style="fill:#000000; fill-opacity:1; font-family:Arial,Helvetica Neue,Helvetica,sans-serif; font-size:48px; text-anchor:start;" transform="rotate(0, 2174.5, 329.704)" x="2174.5" y="329.704">3</text>
</g>
</svg>
